<svg viewBox="0 0 900 420" xmlns="http://www.w3.org/2000/svg" role="img" aria-label="konf.dev architecture diagram">
  <defs>
    <linearGradient id="g1" x1="0" x2="1"><stop offset="0" stop-color="#eef2ff"/><stop offset="1" stop-color="#f8fbff"/></linearGradient>
    <linearGradient id="g2" x1="0" x2="1"><stop offset="0" stop-color="#fff7ed"/><stop offset="1" stop-color="#fffbf5"/></linearGradient>
    <filter id="shadow" x="-20%" y="-20%" width="140%" height="140%"><feDropShadow dx="0" dy="6" stdDeviation="8" flood-color="#000" flood-opacity="0.06"/></filter>
    <marker id="arrow" markerWidth="10" markerHeight="10" refX="8" refY="5" orient="auto">
      <path d="M0 0 L10 5 L0 10 z" fill="#94a3b8"/>
    </marker>
  </defs>

  <!-- UI -->
  <rect x="20" y="20" width="220" height="120" rx="10" fill="url(#g1)" stroke="#e6e9ee"/>
  <text x="30" y="48" font-size="14" font-weight="700" fill="#0f1720">Browser UI</text>
  <text x="30" y="68" font-size="12" fill="#6b7280">Visual builder • Authoring • Demo</text>

  <!-- Runtime -->
  <rect x="310" y="20" width="260" height="120" rx="10" fill="#fff" stroke="#e6e9ee" filter="url(#shadow)"/>
  <text x="330" y="48" font-size="14" font-weight="700">Sutra (Runtime)</text>
  <text x="330" y="68" font-size="12" fill="#6b7280">Compiler • Executor • Tracing</text>
  <text x="330" y="112" font-size="11" fill="#6b7280">Deterministic routing • Retries • Spans</text>

  <!-- Memory -->
  <rect x="610" y="20" width="260" height="120" rx="10" fill="url(#g2)" stroke="#e6e9ee"/>
  <text x="630" y="48" font-size="14" font-weight="700">Smrti (Memory)</text>
  <text x="630" y="68" font-size="12" fill="#6b7280">STM • Vectors • Episodic</text>
  <text x="630" y="112" font-size="11" fill="#6b7280">Provenance • TTL • Hybrid retrieval</text>

  <!-- Tools / Providers -->
  <rect x="20" y="170" width="850" height="120" rx="10" fill="#fff" stroke="#e6e9ee"/>
  <text x="30" y="196" font-size="14" font-weight="700">Adapters & Integrations (Astra)</text>
  <text x="30" y="216" font-size="12" fill="#6b7280">Third-party APIs • Connectors • MCP</text>
  <text x="50" y="300" font-size="11" fill="#6b7280">Providers • Datastores • Webhooks • Secrets</text>

  <!-- arrows -->
  <path d="M240 80 L310 80" stroke="#94a3b8" stroke-width="2" marker-end="url(#arrow)"/>
  <path d="M570 80 L610 80" stroke="#94a3b8" stroke-width="2" marker-end="url(#arrow)"/>
  <path d="M460 140 L460 170" stroke="#94a3b8" stroke-width="2" marker-end="url(#arrow)"/>
  <path d="M200 140 L200 170" stroke="#94a3b8" stroke-width="2" marker-end="url(#arrow)"/>
</svg>
